solid OpenSCAD_Model
  facet normal -0.629391 0.777088 0
    outer loop
      vertex 15 25 0
      vertex -6.69131 7.43145 4
      vertex 15 25 4
    endloop
  endfacet
  facet normal -0.629391 0.777088 0
    outer loop
      vertex -6.69131 7.43145 4
      vertex 15 25 0
      vertex -6.69131 7.43145 0
    endloop
  endfacet
  facet normal -0.866026 0.5 0
    outer loop
      vertex -9.13545 4.06737 0
      vertex -8.09017 5.87785 4
      vertex -8.09017 5.87785 0
    endloop
  endfacet
  facet normal -0.866026 0.5 0
    outer loop
      vertex -8.09017 5.87785 4
      vertex -9.13545 4.06737 0
      vertex -9.13545 4.06737 4
    endloop
  endfacet
  facet normal 0 0 -1
    outer loop
      vertex 4.28658 -0.852654 0
      vertex 35 -25 0
      vertex 15 -25 0
    endloop
  endfacet
  facet normal 0 0 -1
    outer loop
      vertex 35 -25 0
      vertex 4.37056 0 0
      vertex 35 25 0
    endloop
  endfacet
  facet normal 0 0 -1
    outer loop
      vertex 4.28658 0.852654 0
      vertex 35 25 0
      vertex 4.37056 0 0
    endloop
  endfacet
  facet normal 0 0 -1
    outer loop
      vertex 35 -25 0
      vertex 4.28658 -0.852654 0
      vertex 4.37056 0 0
    endloop
  endfacet
  facet normal 0 0 -1
    outer loop
      vertex 15 -25 0
      vertex 4.03787 -1.67254 0
      vertex 4.28658 -0.852654 0
    endloop
  endfacet
  facet normal 0 0 -1
    outer loop
      vertex 15 -25 0
      vertex 3.63399 -2.42815 0
      vertex 4.03787 -1.67254 0
    endloop
  endfacet
  facet normal 0 0 -1
    outer loop
      vertex 15 -25 0
      vertex 3.09046 -3.09046 0
      vertex 3.63399 -2.42815 0
    endloop
  endfacet
  facet normal 0 0 -1
    outer loop
      vertex 15 -25 0
      vertex 2.42815 -3.63399 0
      vertex 3.09046 -3.09046 0
    endloop
  endfacet
  facet normal 0 0 -1
    outer loop
      vertex 15 -25 0
      vertex 1.67254 -4.03787 0
      vertex 2.42815 -3.63399 0
    endloop
  endfacet
  facet normal 0 0 -1
    outer loop
      vertex 15 -25 0
      vertex 0.852654 -4.28658 0
      vertex 1.67254 -4.03787 0
    endloop
  endfacet
  facet normal 0 0 -1
    outer loop
      vertex -6.69131 -7.43145 0
      vertex 0.852654 -4.28658 0
      vertex 15 -25 0
    endloop
  endfacet
  facet normal 0 0 -1
    outer loop
      vertex 0.852654 -4.28658 0
      vertex -6.69131 -7.43145 0
      vertex 0 -4.37056 0
    endloop
  endfacet
  facet normal -0 0 -1
    outer loop
      vertex 0 -4.37056 0
      vertex -6.69131 -7.43145 0
      vertex -0.852654 -4.28658 0
    endloop
  endfacet
  facet normal -0 0 -1
    outer loop
      vertex -0.852654 -4.28658 0
      vertex -6.69131 -7.43145 0
      vertex -1.67254 -4.03787 0
    endloop
  endfacet
  facet normal -0 0 -1
    outer loop
      vertex -1.67254 -4.03787 0
      vertex -6.69131 -7.43145 0
      vertex -2.42815 -3.63399 0
    endloop
  endfacet
  facet normal -0 0 -1
    outer loop
      vertex -3.63399 -2.42815 0
      vertex -9.13545 -4.06737 0
      vertex -4.03787 -1.67254 0
    endloop
  endfacet
  facet normal 0 0 -1
    outer loop
      vertex -9.13545 -4.06737 0
      vertex -3.63399 -2.42815 0
      vertex -8.09017 -5.87785 0
    endloop
  endfacet
  facet normal -0 0 -1
    outer loop
      vertex -3.09046 -3.09046 0
      vertex -8.09017 -5.87785 0
      vertex -3.63399 -2.42815 0
    endloop
  endfacet
  facet normal 0 0 -1
    outer loop
      vertex -8.09017 -5.87785 0
      vertex -3.09046 -3.09046 0
      vertex -6.69131 -7.43145 0
    endloop
  endfacet
  facet normal -0 0 -1
    outer loop
      vertex -2.42815 -3.63399 0
      vertex -6.69131 -7.43145 0
      vertex -3.09046 -3.09046 0
    endloop
  endfacet
  facet normal -0 0 -1
    outer loop
      vertex 35 25 0
      vertex 4.28658 0.852654 0
      vertex 15 25 0
    endloop
  endfacet
  facet normal 0 0 -1
    outer loop
      vertex 4.03787 1.67254 0
      vertex 15 25 0
      vertex 4.28658 0.852654 0
    endloop
  endfacet
  facet normal 0 0 -1
    outer loop
      vertex 3.63399 2.42815 0
      vertex 15 25 0
      vertex 4.03787 1.67254 0
    endloop
  endfacet
  facet normal 0 0 -1
    outer loop
      vertex 3.09046 3.09046 0
      vertex 15 25 0
      vertex 3.63399 2.42815 0
    endloop
  endfacet
  facet normal 0 0 -1
    outer loop
      vertex 2.42815 3.63399 0
      vertex 15 25 0
      vertex 3.09046 3.09046 0
    endloop
  endfacet
  facet normal 0 0 -1
    outer loop
      vertex 1.67254 4.03787 0
      vertex 15 25 0
      vertex 2.42815 3.63399 0
    endloop
  endfacet
  facet normal 0 0 -1
    outer loop
      vertex 0.852654 4.28658 0
      vertex 15 25 0
      vertex 1.67254 4.03787 0
    endloop
  endfacet
  facet normal 0 0 -1
    outer loop
      vertex -6.69131 7.43145 0
      vertex 0.852654 4.28658 0
      vertex 0 4.37056 0
    endloop
  endfacet
  facet normal 0 0 -1
    outer loop
      vertex -6.69131 7.43145 0
      vertex 0 4.37056 0
      vertex -0.852654 4.28658 0
    endloop
  endfacet
  facet normal 0 0 -1
    outer loop
      vertex -6.69131 7.43145 0
      vertex -0.852654 4.28658 0
      vertex -1.67254 4.03787 0
    endloop
  endfacet
  facet normal 0 0 -1
    outer loop
      vertex -6.69131 7.43145 0
      vertex -1.67254 4.03787 0
      vertex -2.42815 3.63399 0
    endloop
  endfacet
  facet normal 0 0 -1
    outer loop
      vertex -6.69131 7.43145 0
      vertex -2.42815 3.63399 0
      vertex -3.09046 3.09046 0
    endloop
  endfacet
  facet normal 0 0 -1
    outer loop
      vertex -9.78148 -2.07912 0
      vertex -4.03787 -1.67254 0
      vertex -9.13545 -4.06737 0
    endloop
  endfacet
  facet normal 0 0 -1
    outer loop
      vertex 0.852654 4.28658 0
      vertex -6.69131 7.43145 0
      vertex 15 25 0
    endloop
  endfacet
  facet normal 0 0 -1
    outer loop
      vertex -8.09017 5.87785 0
      vertex -3.09046 3.09046 0
      vertex -3.63399 2.42815 0
    endloop
  endfacet
  facet normal 0 0 -1
    outer loop
      vertex -9.13545 4.06737 0
      vertex -3.63399 2.42815 0
      vertex -4.03787 1.67254 0
    endloop
  endfacet
  facet normal 0 0 -1
    outer loop
      vertex -9.78148 2.07912 0
      vertex -4.03787 1.67254 0
      vertex -4.28658 0.852654 0
    endloop
  endfacet
  facet normal -0 0 -1
    outer loop
      vertex -4.03787 -1.67254 0
      vertex -9.78148 -2.07912 0
      vertex -4.28658 -0.852654 0
    endloop
  endfacet
  facet normal 0 0 -1
    outer loop
      vertex -10 0 0
      vertex -4.28658 -0.852654 0
      vertex -9.78148 -2.07912 0
    endloop
  endfacet
  facet normal 0 0 -1
    outer loop
      vertex -3.09046 3.09046 0
      vertex -8.09017 5.87785 0
      vertex -6.69131 7.43145 0
    endloop
  endfacet
  facet normal 0 0 -1
    outer loop
      vertex -4.28658 -0.852654 0
      vertex -10 0 0
      vertex -4.37056 0 0
    endloop
  endfacet
  facet normal 0 0 -1
    outer loop
      vertex -3.63399 2.42815 0
      vertex -9.13545 4.06737 0
      vertex -8.09017 5.87785 0
    endloop
  endfacet
  facet normal 0 0 -1
    outer loop
      vertex -4.37056 0 0
      vertex -10 0 0
      vertex -4.28658 0.852654 0
    endloop
  endfacet
  facet normal 0 0 -1
    outer loop
      vertex -4.03787 1.67254 0
      vertex -9.78148 2.07912 0
      vertex -9.13545 4.06737 0
    endloop
  endfacet
  facet normal -0 0 -1
    outer loop
      vertex -4.28658 0.852654 0
      vertex -10 0 0
      vertex -9.78148 2.07912 0
    endloop
  endfacet
  facet normal -0.743145 0.669131 0
    outer loop
      vertex -8.09017 5.87785 0
      vertex -6.69131 7.43145 4
      vertex -6.69131 7.43145 0
    endloop
  endfacet
  facet normal -0.743145 0.669131 0
    outer loop
      vertex -6.69131 7.43145 4
      vertex -8.09017 5.87785 0
      vertex -8.09017 5.87785 4
    endloop
  endfacet
  facet normal -1 0 0
    outer loop
      vertex 25 -25 4
      vertex 25 25 8
      vertex 25 25 4
    endloop
  endfacet
  facet normal -1 -0 0
    outer loop
      vertex 25 25 8
      vertex 25 -25 4
      vertex 25 -25 8
    endloop
  endfacet
  facet normal 0 1 0
    outer loop
      vertex 35 25 8
      vertex 25 25 4
      vertex 25 25 8
    endloop
  endfacet
  facet normal 0 1 -0
    outer loop
      vertex 35 25 0
      vertex 25 25 4
      vertex 35 25 8
    endloop
  endfacet
  facet normal 0 1 0
    outer loop
      vertex 15 25 0
      vertex 25 25 4
      vertex 35 25 0
    endloop
  endfacet
  facet normal 0 1 0
    outer loop
      vertex 25 25 4
      vertex 15 25 0
      vertex 15 25 4
    endloop
  endfacet
  facet normal 0 -1 0
    outer loop
      vertex 15 -25 4
      vertex 15 -25 0
      vertex 25 -25 4
    endloop
  endfacet
  facet normal 0 -1 0
    outer loop
      vertex 25 -25 4
      vertex 35 -25 8
      vertex 25 -25 8
    endloop
  endfacet
  facet normal 0 -1 0
    outer loop
      vertex 35 -25 0
      vertex 25 -25 4
      vertex 15 -25 0
    endloop
  endfacet
  facet normal 0 -1 0
    outer loop
      vertex 25 -25 4
      vertex 35 -25 0
      vertex 35 -25 8
    endloop
  endfacet
  facet normal -0.951057 0.309017 0
    outer loop
      vertex -9.78148 2.07912 0
      vertex -9.13545 4.06737 4
      vertex -9.13545 4.06737 0
    endloop
  endfacet
  facet normal -0.951057 0.309017 0
    outer loop
      vertex -9.13545 4.06737 4
      vertex -9.78148 2.07912 0
      vertex -9.78148 2.07912 4
    endloop
  endfacet
  facet normal -0.994522 0.104529 0
    outer loop
      vertex -10 0 0
      vertex -9.78148 2.07912 4
      vertex -9.78148 2.07912 0
    endloop
  endfacet
  facet normal -0.994522 0.104529 0
    outer loop
      vertex -9.78148 2.07912 4
      vertex -10 0 0
      vertex -10 0 4
    endloop
  endfacet
  facet normal -0.994522 -0.104529 0
    outer loop
      vertex -9.78148 -2.07912 0
      vertex -10 0 4
      vertex -10 0 0
    endloop
  endfacet
  facet normal -0.994522 -0.104529 0
    outer loop
      vertex -10 0 4
      vertex -9.78148 -2.07912 0
      vertex -9.78148 -2.07912 4
    endloop
  endfacet
  facet normal -0.629391 -0.777088 0
    outer loop
      vertex -6.69131 -7.43145 0
      vertex 15 -25 4
      vertex -6.69131 -7.43145 4
    endloop
  endfacet
  facet normal -0.629391 -0.777088 -0
    outer loop
      vertex 15 -25 4
      vertex -6.69131 -7.43145 0
      vertex 15 -25 0
    endloop
  endfacet
  facet normal 0 0 1
    outer loop
      vertex 4.03787 1.67254 4
      vertex 25 25 4
      vertex 15 25 4
    endloop
  endfacet
  facet normal 0 0 1
    outer loop
      vertex 25 25 4
      vertex 4.37056 0 4
      vertex 25 -25 4
    endloop
  endfacet
  facet normal -0 0 1
    outer loop
      vertex 4.28658 -0.852654 4
      vertex 25 -25 4
      vertex 4.37056 0 4
    endloop
  endfacet
  facet normal 0 0 1
    outer loop
      vertex 25 25 4
      vertex 4.28658 0.852654 4
      vertex 4.37056 0 4
    endloop
  endfacet
  facet normal 0 0 1
    outer loop
      vertex 25 25 4
      vertex 4.03787 1.67254 4
      vertex 4.28658 0.852654 4
    endloop
  endfacet
  facet normal 0 0 1
    outer loop
      vertex 15 25 4
      vertex 3.63399 2.42815 4
      vertex 4.03787 1.67254 4
    endloop
  endfacet
  facet normal 0 0 1
    outer loop
      vertex 15 25 4
      vertex 3.09046 3.09046 4
      vertex 3.63399 2.42815 4
    endloop
  endfacet
  facet normal 0 0 1
    outer loop
      vertex 15 25 4
      vertex 2.42815 3.63399 4
      vertex 3.09046 3.09046 4
    endloop
  endfacet
  facet normal 0 0 1
    outer loop
      vertex 15 25 4
      vertex 1.67254 4.03787 4
      vertex 2.42815 3.63399 4
    endloop
  endfacet
  facet normal 0 0 1
    outer loop
      vertex 15 25 4
      vertex 0.852654 4.28658 4
      vertex 1.67254 4.03787 4
    endloop
  endfacet
  facet normal -0 0 1
    outer loop
      vertex -6.69131 7.43145 4
      vertex 0.852654 4.28658 4
      vertex 15 25 4
    endloop
  endfacet
  facet normal 0 0 1
    outer loop
      vertex 0.852654 4.28658 4
      vertex -6.69131 7.43145 4
      vertex 0 4.37056 4
    endloop
  endfacet
  facet normal 0 0 1
    outer loop
      vertex 0 4.37056 4
      vertex -6.69131 7.43145 4
      vertex -0.852654 4.28658 4
    endloop
  endfacet
  facet normal 0 0 1
    outer loop
      vertex -0.852654 4.28658 4
      vertex -6.69131 7.43145 4
      vertex -1.67254 4.03787 4
    endloop
  endfacet
  facet normal 0 0 1
    outer loop
      vertex -1.67254 4.03787 4
      vertex -6.69131 7.43145 4
      vertex -2.42815 3.63399 4
    endloop
  endfacet
  facet normal 0 0 1
    outer loop
      vertex -3.63399 2.42815 4
      vertex -9.13545 4.06737 4
      vertex -4.03787 1.67254 4
    endloop
  endfacet
  facet normal -0 0 1
    outer loop
      vertex -9.13545 4.06737 4
      vertex -3.63399 2.42815 4
      vertex -8.09017 5.87785 4
    endloop
  endfacet
  facet normal 0 0 1
    outer loop
      vertex -3.09046 3.09046 4
      vertex -8.09017 5.87785 4
      vertex -3.63399 2.42815 4
    endloop
  endfacet
  facet normal -0 0 1
    outer loop
      vertex -8.09017 5.87785 4
      vertex -3.09046 3.09046 4
      vertex -6.69131 7.43145 4
    endloop
  endfacet
  facet normal 0 0 1
    outer loop
      vertex -2.42815 3.63399 4
      vertex -6.69131 7.43145 4
      vertex -3.09046 3.09046 4
    endloop
  endfacet
  facet normal -0 0 1
    outer loop
      vertex 4.03787 -1.67254 4
      vertex 25 -25 4
      vertex 4.28658 -0.852654 4
    endloop
  endfacet
  facet normal 0 0 1
    outer loop
      vertex 25 -25 4
      vertex 4.03787 -1.67254 4
      vertex 15 -25 4
    endloop
  endfacet
  facet normal -0 0 1
    outer loop
      vertex 3.63399 -2.42815 4
      vertex 15 -25 4
      vertex 4.03787 -1.67254 4
    endloop
  endfacet
  facet normal -0 0 1
    outer loop
      vertex 3.09046 -3.09046 4
      vertex 15 -25 4
      vertex 3.63399 -2.42815 4
    endloop
  endfacet
  facet normal -0 0 1
    outer loop
      vertex 2.42815 -3.63399 4
      vertex 15 -25 4
      vertex 3.09046 -3.09046 4
    endloop
  endfacet
  facet normal -0 0 1
    outer loop
      vertex 1.67254 -4.03787 4
      vertex 15 -25 4
      vertex 2.42815 -3.63399 4
    endloop
  endfacet
  facet normal -0 0 1
    outer loop
      vertex 0.852654 -4.28658 4
      vertex 15 -25 4
      vertex 1.67254 -4.03787 4
    endloop
  endfacet
  facet normal 0 0 1
    outer loop
      vertex -6.69131 -7.43145 4
      vertex 0.852654 -4.28658 4
      vertex 0 -4.37056 4
    endloop
  endfacet
  facet normal 0 0 1
    outer loop
      vertex -6.69131 -7.43145 4
      vertex 0 -4.37056 4
      vertex -0.852654 -4.28658 4
    endloop
  endfacet
  facet normal 0 0 1
    outer loop
      vertex -6.69131 -7.43145 4
      vertex -0.852654 -4.28658 4
      vertex -1.67254 -4.03787 4
    endloop
  endfacet
  facet normal 0 0 1
    outer loop
      vertex -6.69131 -7.43145 4
      vertex -1.67254 -4.03787 4
      vertex -2.42815 -3.63399 4
    endloop
  endfacet
  facet normal 0 0 1
    outer loop
      vertex -6.69131 -7.43145 4
      vertex -2.42815 -3.63399 4
      vertex -3.09046 -3.09046 4
    endloop
  endfacet
  facet normal -0 0 1
    outer loop
      vertex -9.78148 2.07912 4
      vertex -4.03787 1.67254 4
      vertex -9.13545 4.06737 4
    endloop
  endfacet
  facet normal 0 0 1
    outer loop
      vertex 0.852654 -4.28658 4
      vertex -6.69131 -7.43145 4
      vertex 15 -25 4
    endloop
  endfacet
  facet normal 0 0 1
    outer loop
      vertex -8.09017 -5.87785 4
      vertex -3.09046 -3.09046 4
      vertex -3.63399 -2.42815 4
    endloop
  endfacet
  facet normal 0 0 1
    outer loop
      vertex -9.13545 -4.06737 4
      vertex -3.63399 -2.42815 4
      vertex -4.03787 -1.67254 4
    endloop
  endfacet
  facet normal 0 0 1
    outer loop
      vertex -9.78148 -2.07912 4
      vertex -4.03787 -1.67254 4
      vertex -4.28658 -0.852654 4
    endloop
  endfacet
  facet normal 0 0 1
    outer loop
      vertex -4.03787 1.67254 4
      vertex -9.78148 2.07912 4
      vertex -4.28658 0.852654 4
    endloop
  endfacet
  facet normal 0 0 1
    outer loop
      vertex -10 0 4
      vertex -4.28658 0.852654 4
      vertex -9.78148 2.07912 4
    endloop
  endfacet
  facet normal 0 0 1
    outer loop
      vertex -3.09046 -3.09046 4
      vertex -8.09017 -5.87785 4
      vertex -6.69131 -7.43145 4
    endloop
  endfacet
  facet normal 0 0 1
    outer loop
      vertex -4.28658 0.852654 4
      vertex -10 0 4
      vertex -4.37056 0 4
    endloop
  endfacet
  facet normal 0 0 1
    outer loop
      vertex -3.63399 -2.42815 4
      vertex -9.13545 -4.06737 4
      vertex -8.09017 -5.87785 4
    endloop
  endfacet
  facet normal 0 0 1
    outer loop
      vertex -4.37056 0 4
      vertex -10 0 4
      vertex -4.28658 -0.852654 4
    endloop
  endfacet
  facet normal 0 0 1
    outer loop
      vertex -4.03787 -1.67254 4
      vertex -9.78148 -2.07912 4
      vertex -9.13545 -4.06737 4
    endloop
  endfacet
  facet normal 0 0 1
    outer loop
      vertex -4.28658 -0.852654 4
      vertex -10 0 4
      vertex -9.78148 -2.07912 4
    endloop
  endfacet
  facet normal -0.743145 -0.669131 0
    outer loop
      vertex -6.69131 -7.43145 0
      vertex -8.09017 -5.87785 4
      vertex -8.09017 -5.87785 0
    endloop
  endfacet
  facet normal -0.743145 -0.669131 0
    outer loop
      vertex -8.09017 -5.87785 4
      vertex -6.69131 -7.43145 0
      vertex -6.69131 -7.43145 4
    endloop
  endfacet
  facet normal -0.866026 -0.5 0
    outer loop
      vertex -8.09017 -5.87785 0
      vertex -9.13545 -4.06737 4
      vertex -9.13545 -4.06737 0
    endloop
  endfacet
  facet normal -0.866026 -0.5 0
    outer loop
      vertex -9.13545 -4.06737 4
      vertex -8.09017 -5.87785 0
      vertex -8.09017 -5.87785 4
    endloop
  endfacet
  facet normal -0.951057 -0.309017 0
    outer loop
      vertex -9.13545 -4.06737 0
      vertex -9.78148 -2.07912 4
      vertex -9.78148 -2.07912 0
    endloop
  endfacet
  facet normal -0.951057 -0.309017 0
    outer loop
      vertex -9.78148 -2.07912 4
      vertex -9.13545 -4.06737 0
      vertex -9.13545 -4.06737 4
    endloop
  endfacet
  facet normal -0 0 1
    outer loop
      vertex 25 25 8
      vertex 35 -25 8
      vertex 35 25 8
    endloop
  endfacet
  facet normal 0 0 1
    outer loop
      vertex 35 -25 8
      vertex 25 25 8
      vertex 25 -25 8
    endloop
  endfacet
  facet normal 1 -0 0
    outer loop
      vertex 35 -25 8
      vertex 35 25 0
      vertex 35 25 8
    endloop
  endfacet
  facet normal 1 0 0
    outer loop
      vertex 35 25 0
      vertex 35 -25 8
      vertex 35 -25 0
    endloop
  endfacet
  facet normal -0.995185 -0.0980177 0
    outer loop
      vertex 4.37056 0 0
      vertex 4.28658 0.852654 4
      vertex 4.28658 0.852654 0
    endloop
  endfacet
  facet normal -0.995185 -0.0980177 0
    outer loop
      vertex 4.28658 0.852654 4
      vertex 4.37056 0 0
      vertex 4.37056 0 4
    endloop
  endfacet
  facet normal 0.995185 -0.0980177 0
    outer loop
      vertex -4.37056 0 4
      vertex -4.28658 0.852654 0
      vertex -4.28658 0.852654 4
    endloop
  endfacet
  facet normal 0.995185 -0.0980177 0
    outer loop
      vertex -4.28658 0.852654 0
      vertex -4.37056 0 4
      vertex -4.37056 0 0
    endloop
  endfacet
  facet normal -0.0980177 -0.995185 0
    outer loop
      vertex 0 4.37056 0
      vertex 0.852654 4.28658 4
      vertex 0 4.37056 4
    endloop
  endfacet
  facet normal -0.0980177 -0.995185 -0
    outer loop
      vertex 0.852654 4.28658 4
      vertex 0 4.37056 0
      vertex 0.852654 4.28658 0
    endloop
  endfacet
  facet normal 0.0980177 0.995185 -0
    outer loop
      vertex 0 -4.37056 0
      vertex -0.852654 -4.28658 4
      vertex 0 -4.37056 4
    endloop
  endfacet
  facet normal 0.0980177 0.995185 0
    outer loop
      vertex -0.852654 -4.28658 4
      vertex 0 -4.37056 0
      vertex -0.852654 -4.28658 0
    endloop
  endfacet
  facet normal -0.773011 -0.634393 0
    outer loop
      vertex 3.63399 2.42815 0
      vertex 3.09046 3.09046 4
      vertex 3.09046 3.09046 0
    endloop
  endfacet
  facet normal -0.773011 -0.634393 0
    outer loop
      vertex 3.09046 3.09046 4
      vertex 3.63399 2.42815 0
      vertex 3.63399 2.42815 4
    endloop
  endfacet
  facet normal -0.95694 -0.290284 0
    outer loop
      vertex 4.28658 0.852654 0
      vertex 4.03787 1.67254 4
      vertex 4.03787 1.67254 0
    endloop
  endfacet
  facet normal -0.95694 -0.290284 0
    outer loop
      vertex 4.03787 1.67254 4
      vertex 4.28658 0.852654 0
      vertex 4.28658 0.852654 4
    endloop
  endfacet
  facet normal 0.634393 -0.773011 0
    outer loop
      vertex -3.09046 3.09046 0
      vertex -2.42815 3.63399 4
      vertex -3.09046 3.09046 4
    endloop
  endfacet
  facet normal 0.634393 -0.773011 0
    outer loop
      vertex -2.42815 3.63399 4
      vertex -3.09046 3.09046 0
      vertex -2.42815 3.63399 0
    endloop
  endfacet
  facet normal 0.290284 -0.95694 0
    outer loop
      vertex -1.67254 4.03787 0
      vertex -0.852654 4.28658 4
      vertex -1.67254 4.03787 4
    endloop
  endfacet
  facet normal 0.290284 -0.95694 0
    outer loop
      vertex -0.852654 4.28658 4
      vertex -1.67254 4.03787 0
      vertex -0.852654 4.28658 0
    endloop
  endfacet
  facet normal -0.634393 0.773011 0
    outer loop
      vertex 3.09046 -3.09046 0
      vertex 2.42815 -3.63399 4
      vertex 3.09046 -3.09046 4
    endloop
  endfacet
  facet normal -0.634393 0.773011 0
    outer loop
      vertex 2.42815 -3.63399 4
      vertex 3.09046 -3.09046 0
      vertex 2.42815 -3.63399 0
    endloop
  endfacet
  facet normal -0.881921 -0.471397 0
    outer loop
      vertex 4.03787 1.67254 0
      vertex 3.63399 2.42815 4
      vertex 3.63399 2.42815 0
    endloop
  endfacet
  facet normal -0.881921 -0.471397 0
    outer loop
      vertex 3.63399 2.42815 4
      vertex 4.03787 1.67254 0
      vertex 4.03787 1.67254 4
    endloop
  endfacet
  facet normal -0.471397 -0.881921 0
    outer loop
      vertex 1.67254 4.03787 0
      vertex 2.42815 3.63399 4
      vertex 1.67254 4.03787 4
    endloop
  endfacet
  facet normal -0.471397 -0.881921 -0
    outer loop
      vertex 2.42815 3.63399 4
      vertex 1.67254 4.03787 0
      vertex 2.42815 3.63399 0
    endloop
  endfacet
  facet normal -0.290284 -0.95694 0
    outer loop
      vertex 0.852654 4.28658 0
      vertex 1.67254 4.03787 4
      vertex 0.852654 4.28658 4
    endloop
  endfacet
  facet normal -0.290284 -0.95694 -0
    outer loop
      vertex 1.67254 4.03787 4
      vertex 0.852654 4.28658 0
      vertex 1.67254 4.03787 0
    endloop
  endfacet
  facet normal -0.634393 -0.773011 0
    outer loop
      vertex 2.42815 3.63399 0
      vertex 3.09046 3.09046 4
      vertex 2.42815 3.63399 4
    endloop
  endfacet
  facet normal -0.634393 -0.773011 -0
    outer loop
      vertex 3.09046 3.09046 4
      vertex 2.42815 3.63399 0
      vertex 3.09046 3.09046 0
    endloop
  endfacet
  facet normal 0.881921 -0.471397 0
    outer loop
      vertex -4.03787 1.67254 4
      vertex -3.63399 2.42815 0
      vertex -3.63399 2.42815 4
    endloop
  endfacet
  facet normal 0.881921 -0.471397 0
    outer loop
      vertex -3.63399 2.42815 0
      vertex -4.03787 1.67254 4
      vertex -4.03787 1.67254 0
    endloop
  endfacet
  facet normal 0.773011 -0.634393 0
    outer loop
      vertex -3.63399 2.42815 4
      vertex -3.09046 3.09046 0
      vertex -3.09046 3.09046 4
    endloop
  endfacet
  facet normal 0.773011 -0.634393 0
    outer loop
      vertex -3.09046 3.09046 0
      vertex -3.63399 2.42815 4
      vertex -3.63399 2.42815 0
    endloop
  endfacet
  facet normal 0.95694 -0.290284 0
    outer loop
      vertex -4.28658 0.852654 4
      vertex -4.03787 1.67254 0
      vertex -4.03787 1.67254 4
    endloop
  endfacet
  facet normal 0.95694 -0.290284 0
    outer loop
      vertex -4.03787 1.67254 0
      vertex -4.28658 0.852654 4
      vertex -4.28658 0.852654 0
    endloop
  endfacet
  facet normal 0.471397 -0.881921 0
    outer loop
      vertex -2.42815 3.63399 0
      vertex -1.67254 4.03787 4
      vertex -2.42815 3.63399 4
    endloop
  endfacet
  facet normal 0.471397 -0.881921 0
    outer loop
      vertex -1.67254 4.03787 4
      vertex -2.42815 3.63399 0
      vertex -1.67254 4.03787 0
    endloop
  endfacet
  facet normal 0.0980177 -0.995185 0
    outer loop
      vertex -0.852654 4.28658 0
      vertex 0 4.37056 4
      vertex -0.852654 4.28658 4
    endloop
  endfacet
  facet normal 0.0980177 -0.995185 0
    outer loop
      vertex 0 4.37056 4
      vertex -0.852654 4.28658 0
      vertex 0 4.37056 0
    endloop
  endfacet
  facet normal -0.0980177 0.995185 0
    outer loop
      vertex 0.852654 -4.28658 0
      vertex 0 -4.37056 4
      vertex 0.852654 -4.28658 4
    endloop
  endfacet
  facet normal -0.0980177 0.995185 0
    outer loop
      vertex 0 -4.37056 4
      vertex 0.852654 -4.28658 0
      vertex 0 -4.37056 0
    endloop
  endfacet
  facet normal -0.471397 0.881921 0
    outer loop
      vertex 2.42815 -3.63399 0
      vertex 1.67254 -4.03787 4
      vertex 2.42815 -3.63399 4
    endloop
  endfacet
  facet normal -0.471397 0.881921 0
    outer loop
      vertex 1.67254 -4.03787 4
      vertex 2.42815 -3.63399 0
      vertex 1.67254 -4.03787 0
    endloop
  endfacet
  facet normal 0.634393 0.773011 -0
    outer loop
      vertex -2.42815 -3.63399 0
      vertex -3.09046 -3.09046 4
      vertex -2.42815 -3.63399 4
    endloop
  endfacet
  facet normal 0.634393 0.773011 0
    outer loop
      vertex -3.09046 -3.09046 4
      vertex -2.42815 -3.63399 0
      vertex -3.09046 -3.09046 0
    endloop
  endfacet
  facet normal 0.290284 0.95694 -0
    outer loop
      vertex -0.852654 -4.28658 0
      vertex -1.67254 -4.03787 4
      vertex -0.852654 -4.28658 4
    endloop
  endfacet
  facet normal 0.290284 0.95694 0
    outer loop
      vertex -1.67254 -4.03787 4
      vertex -0.852654 -4.28658 0
      vertex -1.67254 -4.03787 0
    endloop
  endfacet
  facet normal 0.881921 0.471397 0
    outer loop
      vertex -3.63399 -2.42815 4
      vertex -4.03787 -1.67254 0
      vertex -4.03787 -1.67254 4
    endloop
  endfacet
  facet normal 0.881921 0.471397 0
    outer loop
      vertex -4.03787 -1.67254 0
      vertex -3.63399 -2.42815 4
      vertex -3.63399 -2.42815 0
    endloop
  endfacet
  facet normal 0.773011 0.634393 0
    outer loop
      vertex -3.09046 -3.09046 4
      vertex -3.63399 -2.42815 0
      vertex -3.63399 -2.42815 4
    endloop
  endfacet
  facet normal 0.773011 0.634393 0
    outer loop
      vertex -3.63399 -2.42815 0
      vertex -3.09046 -3.09046 4
      vertex -3.09046 -3.09046 0
    endloop
  endfacet
  facet normal 0.995185 0.0980177 0
    outer loop
      vertex -4.28658 -0.852654 4
      vertex -4.37056 0 0
      vertex -4.37056 0 4
    endloop
  endfacet
  facet normal 0.995185 0.0980177 0
    outer loop
      vertex -4.37056 0 0
      vertex -4.28658 -0.852654 4
      vertex -4.28658 -0.852654 0
    endloop
  endfacet
  facet normal -0.290284 0.95694 0
    outer loop
      vertex 1.67254 -4.03787 0
      vertex 0.852654 -4.28658 4
      vertex 1.67254 -4.03787 4
    endloop
  endfacet
  facet normal -0.290284 0.95694 0
    outer loop
      vertex 0.852654 -4.28658 4
      vertex 1.67254 -4.03787 0
      vertex 0.852654 -4.28658 0
    endloop
  endfacet
  facet normal -0.881921 0.471397 0
    outer loop
      vertex 3.63399 -2.42815 0
      vertex 4.03787 -1.67254 4
      vertex 4.03787 -1.67254 0
    endloop
  endfacet
  facet normal -0.881921 0.471397 0
    outer loop
      vertex 4.03787 -1.67254 4
      vertex 3.63399 -2.42815 0
      vertex 3.63399 -2.42815 4
    endloop
  endfacet
  facet normal -0.773011 0.634393 0
    outer loop
      vertex 3.09046 -3.09046 0
      vertex 3.63399 -2.42815 4
      vertex 3.63399 -2.42815 0
    endloop
  endfacet
  facet normal -0.773011 0.634393 0
    outer loop
      vertex 3.63399 -2.42815 4
      vertex 3.09046 -3.09046 0
      vertex 3.09046 -3.09046 4
    endloop
  endfacet
  facet normal -0.95694 0.290284 0
    outer loop
      vertex 4.03787 -1.67254 0
      vertex 4.28658 -0.852654 4
      vertex 4.28658 -0.852654 0
    endloop
  endfacet
  facet normal -0.95694 0.290284 0
    outer loop
      vertex 4.28658 -0.852654 4
      vertex 4.03787 -1.67254 0
      vertex 4.03787 -1.67254 4
    endloop
  endfacet
  facet normal 0.471397 0.881921 -0
    outer loop
      vertex -1.67254 -4.03787 0
      vertex -2.42815 -3.63399 4
      vertex -1.67254 -4.03787 4
    endloop
  endfacet
  facet normal 0.471397 0.881921 0
    outer loop
      vertex -2.42815 -3.63399 4
      vertex -1.67254 -4.03787 0
      vertex -2.42815 -3.63399 0
    endloop
  endfacet
  facet normal 0.95694 0.290284 0
    outer loop
      vertex -4.03787 -1.67254 4
      vertex -4.28658 -0.852654 0
      vertex -4.28658 -0.852654 4
    endloop
  endfacet
  facet normal 0.95694 0.290284 0
    outer loop
      vertex -4.28658 -0.852654 0
      vertex -4.03787 -1.67254 4
      vertex -4.03787 -1.67254 0
    endloop
  endfacet
  facet normal -0.995185 0.0980177 0
    outer loop
      vertex 4.28658 -0.852654 0
      vertex 4.37056 0 4
      vertex 4.37056 0 0
    endloop
  endfacet
  facet normal -0.995185 0.0980177 0
    outer loop
      vertex 4.37056 0 4
      vertex 4.28658 -0.852654 0
      vertex 4.28658 -0.852654 4
    endloop
  endfacet
endsolid OpenSCAD_Model
